<mxfile host="app.diagrams.net" agent="Mozilla/5.0 (Windows NT 10.0; Win64; x64) AppleWebKit/537.36 (KHTML, like Gecko) Chrome/141.0.0.0 Safari/537.36" version="28.2.6">
  <diagram name="Modelo-Fisico" id="_9YBuqigxpqy09w-Wuhd">
    <mxGraphModel dx="1442" dy="570" grid="0" gridSize="12" guides="1" tooltips="1" connect="1" arrows="1" fold="1" page="0" pageScale="1" pageWidth="827" pageHeight="1169" math="0" shadow="0">
      <root>
        <mxCell id="Sgz2viNoFniqBPr7EADz-0" />
        <mxCell id="Sgz2viNoFniqBPr7EADz-1" parent="Sgz2viNoFniqBPr7EADz-0" />
        <mxCell id="Sgz2viNoFniqBPr7EADz-2" value="TAGS" style="shape=table;startSize=30;container=1;collapsible=1;childLayout=tableLayout;fixedRows=1;rowLines=0;fontStyle=1;align=center;resizeLast=1;html=1;labelBackgroundColor=none;" parent="Sgz2viNoFniqBPr7EADz-1" vertex="1">
          <mxGeometry x="-24" y="399" width="312" height="120" as="geometry" />
        </mxCell>
        <mxCell id="Sgz2viNoFniqBPr7EADz-3" value="" style="shape=tableRow;horizontal=0;startSize=0;swimlaneHead=0;swimlaneBody=0;fillColor=none;collapsible=0;dropTarget=0;points=[[0,0.5],[1,0.5]];portConstraint=eastwest;top=0;left=0;right=0;bottom=1;labelBackgroundColor=none;" parent="Sgz2viNoFniqBPr7EADz-2" vertex="1">
          <mxGeometry y="30" width="312" height="30" as="geometry" />
        </mxCell>
        <mxCell id="Sgz2viNoFniqBPr7EADz-4" value="PK" style="shape=partialRectangle;connectable=0;fillColor=none;top=0;left=0;bottom=0;right=0;fontStyle=1;overflow=hidden;whiteSpace=wrap;html=1;labelBackgroundColor=none;" parent="Sgz2viNoFniqBPr7EADz-3" vertex="1">
          <mxGeometry width="30" height="30" as="geometry">
            <mxRectangle width="30" height="30" as="alternateBounds" />
          </mxGeometry>
        </mxCell>
        <mxCell id="Sgz2viNoFniqBPr7EADz-5" value="Id_tag&lt;span style=&quot;white-space: pre;&quot;&gt;&#x9;&lt;/span&gt;INT" style="shape=partialRectangle;connectable=0;fillColor=none;top=0;left=0;bottom=0;right=0;align=left;spacingLeft=6;fontStyle=5;overflow=hidden;whiteSpace=wrap;html=1;labelBackgroundColor=none;" parent="Sgz2viNoFniqBPr7EADz-3" vertex="1">
          <mxGeometry x="30" width="282" height="30" as="geometry">
            <mxRectangle width="282" height="30" as="alternateBounds" />
          </mxGeometry>
        </mxCell>
        <mxCell id="Sgz2viNoFniqBPr7EADz-6" value="" style="shape=tableRow;horizontal=0;startSize=0;swimlaneHead=0;swimlaneBody=0;fillColor=none;collapsible=0;dropTarget=0;points=[[0,0.5],[1,0.5]];portConstraint=eastwest;top=0;left=0;right=0;bottom=0;labelBackgroundColor=none;" parent="Sgz2viNoFniqBPr7EADz-2" vertex="1">
          <mxGeometry y="60" width="312" height="30" as="geometry" />
        </mxCell>
        <mxCell id="Sgz2viNoFniqBPr7EADz-7" value="FK" style="shape=partialRectangle;connectable=0;fillColor=none;top=0;left=0;bottom=0;right=0;editable=1;overflow=hidden;whiteSpace=wrap;html=1;labelBackgroundColor=none;" parent="Sgz2viNoFniqBPr7EADz-6" vertex="1">
          <mxGeometry width="30" height="30" as="geometry">
            <mxRectangle width="30" height="30" as="alternateBounds" />
          </mxGeometry>
        </mxCell>
        <mxCell id="Sgz2viNoFniqBPr7EADz-8" value="Id_Usuario&lt;span style=&quot;white-space: pre;&quot;&gt;&#x9;&lt;/span&gt;INT&amp;nbsp;NOT NULL" style="shape=partialRectangle;connectable=0;fillColor=none;top=0;left=0;bottom=0;right=0;align=left;spacingLeft=6;overflow=hidden;whiteSpace=wrap;html=1;labelBackgroundColor=none;" parent="Sgz2viNoFniqBPr7EADz-6" vertex="1">
          <mxGeometry x="30" width="282" height="30" as="geometry">
            <mxRectangle width="282" height="30" as="alternateBounds" />
          </mxGeometry>
        </mxCell>
        <mxCell id="Sgz2viNoFniqBPr7EADz-9" value="" style="shape=tableRow;horizontal=0;startSize=0;swimlaneHead=0;swimlaneBody=0;fillColor=none;collapsible=0;dropTarget=0;points=[[0,0.5],[1,0.5]];portConstraint=eastwest;top=0;left=0;right=0;bottom=0;labelBackgroundColor=none;" parent="Sgz2viNoFniqBPr7EADz-2" vertex="1">
          <mxGeometry y="90" width="312" height="30" as="geometry" />
        </mxCell>
        <mxCell id="Sgz2viNoFniqBPr7EADz-10" value="" style="shape=partialRectangle;connectable=0;fillColor=none;top=0;left=0;bottom=0;right=0;editable=1;overflow=hidden;whiteSpace=wrap;html=1;labelBackgroundColor=none;" parent="Sgz2viNoFniqBPr7EADz-9" vertex="1">
          <mxGeometry width="30" height="30" as="geometry">
            <mxRectangle width="30" height="30" as="alternateBounds" />
          </mxGeometry>
        </mxCell>
        <mxCell id="Sgz2viNoFniqBPr7EADz-11" value="Nome&lt;span style=&quot;white-space: pre;&quot;&gt;&#x9;&lt;/span&gt;TEXT&amp;nbsp;NOT NULL" style="shape=partialRectangle;connectable=0;fillColor=none;top=0;left=0;bottom=0;right=0;align=left;spacingLeft=6;overflow=hidden;whiteSpace=wrap;html=1;labelBackgroundColor=none;" parent="Sgz2viNoFniqBPr7EADz-9" vertex="1">
          <mxGeometry x="30" width="282" height="30" as="geometry">
            <mxRectangle width="282" height="30" as="alternateBounds" />
          </mxGeometry>
        </mxCell>
        <mxCell id="Sgz2viNoFniqBPr7EADz-12" value="USUARIO" style="shape=table;startSize=30;container=1;collapsible=1;childLayout=tableLayout;fixedRows=1;rowLines=0;fontStyle=1;align=center;resizeLast=1;html=1;labelBackgroundColor=none;" parent="Sgz2viNoFniqBPr7EADz-1" vertex="1">
          <mxGeometry x="-72" y="648" width="384" height="180" as="geometry" />
        </mxCell>
        <mxCell id="Sgz2viNoFniqBPr7EADz-13" value="" style="shape=tableRow;horizontal=0;startSize=0;swimlaneHead=0;swimlaneBody=0;fillColor=none;collapsible=0;dropTarget=0;points=[[0,0.5],[1,0.5]];portConstraint=eastwest;top=0;left=0;right=0;bottom=1;labelBackgroundColor=none;" parent="Sgz2viNoFniqBPr7EADz-12" vertex="1">
          <mxGeometry y="30" width="384" height="30" as="geometry" />
        </mxCell>
        <mxCell id="Sgz2viNoFniqBPr7EADz-14" value="PK" style="shape=partialRectangle;connectable=0;fillColor=none;top=0;left=0;bottom=0;right=0;fontStyle=1;overflow=hidden;whiteSpace=wrap;html=1;labelBackgroundColor=none;" parent="Sgz2viNoFniqBPr7EADz-13" vertex="1">
          <mxGeometry width="30" height="30" as="geometry">
            <mxRectangle width="30" height="30" as="alternateBounds" />
          </mxGeometry>
        </mxCell>
        <mxCell id="Sgz2viNoFniqBPr7EADz-15" value="Id_Usuario&lt;span style=&quot;white-space: pre;&quot;&gt;&#x9;&lt;/span&gt;INT" style="shape=partialRectangle;connectable=0;fillColor=none;top=0;left=0;bottom=0;right=0;align=left;spacingLeft=6;fontStyle=5;overflow=hidden;whiteSpace=wrap;html=1;labelBackgroundColor=none;" parent="Sgz2viNoFniqBPr7EADz-13" vertex="1">
          <mxGeometry x="30" width="354" height="30" as="geometry">
            <mxRectangle width="354" height="30" as="alternateBounds" />
          </mxGeometry>
        </mxCell>
        <mxCell id="Sgz2viNoFniqBPr7EADz-16" value="" style="shape=tableRow;horizontal=0;startSize=0;swimlaneHead=0;swimlaneBody=0;fillColor=none;collapsible=0;dropTarget=0;points=[[0,0.5],[1,0.5]];portConstraint=eastwest;top=0;left=0;right=0;bottom=0;labelBackgroundColor=none;" parent="Sgz2viNoFniqBPr7EADz-12" vertex="1">
          <mxGeometry y="60" width="384" height="30" as="geometry" />
        </mxCell>
        <mxCell id="Sgz2viNoFniqBPr7EADz-17" value="" style="shape=partialRectangle;connectable=0;fillColor=none;top=0;left=0;bottom=0;right=0;editable=1;overflow=hidden;whiteSpace=wrap;html=1;labelBackgroundColor=none;" parent="Sgz2viNoFniqBPr7EADz-16" vertex="1">
          <mxGeometry width="30" height="30" as="geometry">
            <mxRectangle width="30" height="30" as="alternateBounds" />
          </mxGeometry>
        </mxCell>
        <mxCell id="Sgz2viNoFniqBPr7EADz-18" value="Nome&lt;span style=&quot;white-space: pre;&quot;&gt;&#x9;&lt;/span&gt;TEXT NOT NULL" style="shape=partialRectangle;connectable=0;fillColor=none;top=0;left=0;bottom=0;right=0;align=left;spacingLeft=6;overflow=hidden;whiteSpace=wrap;html=1;labelBackgroundColor=none;" parent="Sgz2viNoFniqBPr7EADz-16" vertex="1">
          <mxGeometry x="30" width="354" height="30" as="geometry">
            <mxRectangle width="354" height="30" as="alternateBounds" />
          </mxGeometry>
        </mxCell>
        <mxCell id="Sgz2viNoFniqBPr7EADz-19" value="" style="shape=tableRow;horizontal=0;startSize=0;swimlaneHead=0;swimlaneBody=0;fillColor=none;collapsible=0;dropTarget=0;points=[[0,0.5],[1,0.5]];portConstraint=eastwest;top=0;left=0;right=0;bottom=0;labelBackgroundColor=none;" parent="Sgz2viNoFniqBPr7EADz-12" vertex="1">
          <mxGeometry y="90" width="384" height="30" as="geometry" />
        </mxCell>
        <mxCell id="Sgz2viNoFniqBPr7EADz-20" value="" style="shape=partialRectangle;connectable=0;fillColor=none;top=0;left=0;bottom=0;right=0;editable=1;overflow=hidden;whiteSpace=wrap;html=1;labelBackgroundColor=none;" parent="Sgz2viNoFniqBPr7EADz-19" vertex="1">
          <mxGeometry width="30" height="30" as="geometry">
            <mxRectangle width="30" height="30" as="alternateBounds" />
          </mxGeometry>
        </mxCell>
        <mxCell id="Sgz2viNoFniqBPr7EADz-21" value="Email&lt;span style=&quot;white-space: pre;&quot;&gt;&#x9;&lt;/span&gt;TEXT&amp;nbsp;UNIQUE NOT NULL" style="shape=partialRectangle;connectable=0;fillColor=none;top=0;left=0;bottom=0;right=0;align=left;spacingLeft=6;overflow=hidden;whiteSpace=wrap;html=1;labelBackgroundColor=none;" parent="Sgz2viNoFniqBPr7EADz-19" vertex="1">
          <mxGeometry x="30" width="354" height="30" as="geometry">
            <mxRectangle width="354" height="30" as="alternateBounds" />
          </mxGeometry>
        </mxCell>
        <mxCell id="Sgz2viNoFniqBPr7EADz-22" value="" style="shape=tableRow;horizontal=0;startSize=0;swimlaneHead=0;swimlaneBody=0;fillColor=none;collapsible=0;dropTarget=0;points=[[0,0.5],[1,0.5]];portConstraint=eastwest;top=0;left=0;right=0;bottom=0;labelBackgroundColor=none;" parent="Sgz2viNoFniqBPr7EADz-12" vertex="1">
          <mxGeometry y="120" width="384" height="30" as="geometry" />
        </mxCell>
        <mxCell id="Sgz2viNoFniqBPr7EADz-23" value="" style="shape=partialRectangle;connectable=0;fillColor=none;top=0;left=0;bottom=0;right=0;editable=1;overflow=hidden;whiteSpace=wrap;html=1;labelBackgroundColor=none;" parent="Sgz2viNoFniqBPr7EADz-22" vertex="1">
          <mxGeometry width="30" height="30" as="geometry">
            <mxRectangle width="30" height="30" as="alternateBounds" />
          </mxGeometry>
        </mxCell>
        <mxCell id="Sgz2viNoFniqBPr7EADz-24" value="Senha&lt;span style=&quot;white-space: pre;&quot;&gt;&#x9;&lt;/span&gt;TEXT NOT NULL" style="shape=partialRectangle;connectable=0;fillColor=none;top=0;left=0;bottom=0;right=0;align=left;spacingLeft=6;overflow=hidden;whiteSpace=wrap;html=1;labelBackgroundColor=none;" parent="Sgz2viNoFniqBPr7EADz-22" vertex="1">
          <mxGeometry x="30" width="354" height="30" as="geometry">
            <mxRectangle width="354" height="30" as="alternateBounds" />
          </mxGeometry>
        </mxCell>
        <mxCell id="Sgz2viNoFniqBPr7EADz-25" value="" style="shape=tableRow;horizontal=0;startSize=0;swimlaneHead=0;swimlaneBody=0;fillColor=none;collapsible=0;dropTarget=0;points=[[0,0.5],[1,0.5]];portConstraint=eastwest;top=0;left=0;right=0;bottom=0;labelBackgroundColor=none;" parent="Sgz2viNoFniqBPr7EADz-12" vertex="1">
          <mxGeometry y="150" width="384" height="30" as="geometry" />
        </mxCell>
        <mxCell id="Sgz2viNoFniqBPr7EADz-26" value="" style="shape=partialRectangle;connectable=0;fillColor=none;top=0;left=0;bottom=0;right=0;editable=1;overflow=hidden;whiteSpace=wrap;html=1;labelBackgroundColor=none;" parent="Sgz2viNoFniqBPr7EADz-25" vertex="1">
          <mxGeometry width="30" height="30" as="geometry">
            <mxRectangle width="30" height="30" as="alternateBounds" />
          </mxGeometry>
        </mxCell>
        <mxCell id="Sgz2viNoFniqBPr7EADz-27" value="data_criação&lt;span style=&quot;white-space: pre;&quot;&gt;&#x9;&lt;/span&gt;TIMESTAMP DEFAULT&amp;nbsp;CURRENT_TIMESTAMP" style="shape=partialRectangle;connectable=0;fillColor=none;top=0;left=0;bottom=0;right=0;align=left;spacingLeft=6;overflow=hidden;whiteSpace=wrap;html=1;labelBackgroundColor=none;" parent="Sgz2viNoFniqBPr7EADz-25" vertex="1">
          <mxGeometry x="30" width="354" height="30" as="geometry">
            <mxRectangle width="354" height="30" as="alternateBounds" />
          </mxGeometry>
        </mxCell>
        <mxCell id="Sgz2viNoFniqBPr7EADz-28" value="NOTA" style="shape=table;startSize=30;container=1;collapsible=1;childLayout=tableLayout;fixedRows=1;rowLines=0;fontStyle=1;align=center;resizeLast=1;html=1;labelBackgroundColor=none;" parent="Sgz2viNoFniqBPr7EADz-1" vertex="1">
          <mxGeometry x="432" y="684" width="396" height="240" as="geometry" />
        </mxCell>
        <mxCell id="Sgz2viNoFniqBPr7EADz-29" value="" style="shape=tableRow;horizontal=0;startSize=0;swimlaneHead=0;swimlaneBody=0;fillColor=none;collapsible=0;dropTarget=0;points=[[0,0.5],[1,0.5]];portConstraint=eastwest;top=0;left=0;right=0;bottom=1;labelBackgroundColor=none;" parent="Sgz2viNoFniqBPr7EADz-28" vertex="1">
          <mxGeometry y="30" width="396" height="30" as="geometry" />
        </mxCell>
        <mxCell id="Sgz2viNoFniqBPr7EADz-30" value="PK" style="shape=partialRectangle;connectable=0;fillColor=none;top=0;left=0;bottom=0;right=0;fontStyle=1;overflow=hidden;whiteSpace=wrap;html=1;labelBackgroundColor=none;" parent="Sgz2viNoFniqBPr7EADz-29" vertex="1">
          <mxGeometry width="30" height="30" as="geometry">
            <mxRectangle width="30" height="30" as="alternateBounds" />
          </mxGeometry>
        </mxCell>
        <mxCell id="Sgz2viNoFniqBPr7EADz-31" value="Id_Nota&lt;span style=&quot;white-space: pre;&quot;&gt;&#x9;&lt;/span&gt;INT" style="shape=partialRectangle;connectable=0;fillColor=none;top=0;left=0;bottom=0;right=0;align=left;spacingLeft=6;fontStyle=5;overflow=hidden;whiteSpace=wrap;html=1;labelBackgroundColor=none;" parent="Sgz2viNoFniqBPr7EADz-29" vertex="1">
          <mxGeometry x="30" width="366" height="30" as="geometry">
            <mxRectangle width="366" height="30" as="alternateBounds" />
          </mxGeometry>
        </mxCell>
        <mxCell id="Sgz2viNoFniqBPr7EADz-32" value="" style="shape=tableRow;horizontal=0;startSize=0;swimlaneHead=0;swimlaneBody=0;fillColor=none;collapsible=0;dropTarget=0;points=[[0,0.5],[1,0.5]];portConstraint=eastwest;top=0;left=0;right=0;bottom=0;labelBackgroundColor=none;" parent="Sgz2viNoFniqBPr7EADz-28" vertex="1">
          <mxGeometry y="60" width="396" height="30" as="geometry" />
        </mxCell>
        <mxCell id="Sgz2viNoFniqBPr7EADz-33" value="FK" style="shape=partialRectangle;connectable=0;fillColor=none;top=0;left=0;bottom=0;right=0;editable=1;overflow=hidden;whiteSpace=wrap;html=1;labelBackgroundColor=none;" parent="Sgz2viNoFniqBPr7EADz-32" vertex="1">
          <mxGeometry width="30" height="30" as="geometry">
            <mxRectangle width="30" height="30" as="alternateBounds" />
          </mxGeometry>
        </mxCell>
        <mxCell id="Sgz2viNoFniqBPr7EADz-34" value="Id_usuario&lt;span style=&quot;white-space: pre;&quot;&gt;&#x9;&lt;/span&gt;INT&amp;nbsp;NOT NULL" style="shape=partialRectangle;connectable=0;fillColor=none;top=0;left=0;bottom=0;right=0;align=left;spacingLeft=6;overflow=hidden;whiteSpace=wrap;html=1;labelBackgroundColor=none;" parent="Sgz2viNoFniqBPr7EADz-32" vertex="1">
          <mxGeometry x="30" width="366" height="30" as="geometry">
            <mxRectangle width="366" height="30" as="alternateBounds" />
          </mxGeometry>
        </mxCell>
        <mxCell id="Sgz2viNoFniqBPr7EADz-35" value="" style="shape=tableRow;horizontal=0;startSize=0;swimlaneHead=0;swimlaneBody=0;fillColor=none;collapsible=0;dropTarget=0;points=[[0,0.5],[1,0.5]];portConstraint=eastwest;top=0;left=0;right=0;bottom=0;labelBackgroundColor=none;" parent="Sgz2viNoFniqBPr7EADz-28" vertex="1">
          <mxGeometry y="90" width="396" height="30" as="geometry" />
        </mxCell>
        <mxCell id="Sgz2viNoFniqBPr7EADz-36" value="" style="shape=partialRectangle;connectable=0;fillColor=none;top=0;left=0;bottom=0;right=0;editable=1;overflow=hidden;whiteSpace=wrap;html=1;labelBackgroundColor=none;" parent="Sgz2viNoFniqBPr7EADz-35" vertex="1">
          <mxGeometry width="30" height="30" as="geometry">
            <mxRectangle width="30" height="30" as="alternateBounds" />
          </mxGeometry>
        </mxCell>
        <mxCell id="Sgz2viNoFniqBPr7EADz-37" value="Imagem_URL&lt;span style=&quot;white-space: pre;&quot;&gt;&#x9;&lt;/span&gt;TEXT" style="shape=partialRectangle;connectable=0;fillColor=none;top=0;left=0;bottom=0;right=0;align=left;spacingLeft=6;overflow=hidden;whiteSpace=wrap;html=1;labelBackgroundColor=none;" parent="Sgz2viNoFniqBPr7EADz-35" vertex="1">
          <mxGeometry x="30" width="366" height="30" as="geometry">
            <mxRectangle width="366" height="30" as="alternateBounds" />
          </mxGeometry>
        </mxCell>
        <mxCell id="Sgz2viNoFniqBPr7EADz-38" value="" style="shape=tableRow;horizontal=0;startSize=0;swimlaneHead=0;swimlaneBody=0;fillColor=none;collapsible=0;dropTarget=0;points=[[0,0.5],[1,0.5]];portConstraint=eastwest;top=0;left=0;right=0;bottom=0;labelBackgroundColor=none;" parent="Sgz2viNoFniqBPr7EADz-28" vertex="1">
          <mxGeometry y="120" width="396" height="30" as="geometry" />
        </mxCell>
        <mxCell id="Sgz2viNoFniqBPr7EADz-39" value="" style="shape=partialRectangle;connectable=0;fillColor=none;top=0;left=0;bottom=0;right=0;editable=1;overflow=hidden;whiteSpace=wrap;html=1;labelBackgroundColor=none;" parent="Sgz2viNoFniqBPr7EADz-38" vertex="1">
          <mxGeometry width="30" height="30" as="geometry">
            <mxRectangle width="30" height="30" as="alternateBounds" />
          </mxGeometry>
        </mxCell>
        <mxCell id="Sgz2viNoFniqBPr7EADz-40" value="Titulo&lt;span style=&quot;white-space: pre;&quot;&gt;&#x9;&lt;/span&gt;&lt;span style=&quot;white-space: pre;&quot;&gt;&#x9;&lt;/span&gt;VARCHAR(150) NOT NULL" style="shape=partialRectangle;connectable=0;fillColor=none;top=0;left=0;bottom=0;right=0;align=left;spacingLeft=6;overflow=hidden;whiteSpace=wrap;html=1;labelBackgroundColor=none;" parent="Sgz2viNoFniqBPr7EADz-38" vertex="1">
          <mxGeometry x="30" width="366" height="30" as="geometry">
            <mxRectangle width="366" height="30" as="alternateBounds" />
          </mxGeometry>
        </mxCell>
        <mxCell id="Sgz2viNoFniqBPr7EADz-41" value="" style="shape=tableRow;horizontal=0;startSize=0;swimlaneHead=0;swimlaneBody=0;fillColor=none;collapsible=0;dropTarget=0;points=[[0,0.5],[1,0.5]];portConstraint=eastwest;top=0;left=0;right=0;bottom=0;labelBackgroundColor=none;" parent="Sgz2viNoFniqBPr7EADz-28" vertex="1">
          <mxGeometry y="150" width="396" height="30" as="geometry" />
        </mxCell>
        <mxCell id="Sgz2viNoFniqBPr7EADz-42" value="" style="shape=partialRectangle;connectable=0;fillColor=none;top=0;left=0;bottom=0;right=0;editable=1;overflow=hidden;whiteSpace=wrap;html=1;labelBackgroundColor=none;" parent="Sgz2viNoFniqBPr7EADz-41" vertex="1">
          <mxGeometry width="30" height="30" as="geometry">
            <mxRectangle width="30" height="30" as="alternateBounds" />
          </mxGeometry>
        </mxCell>
        <mxCell id="Sgz2viNoFniqBPr7EADz-43" value="Descrição&lt;span style=&quot;white-space: pre;&quot;&gt;&#x9;&lt;/span&gt;TEXT" style="shape=partialRectangle;connectable=0;fillColor=none;top=0;left=0;bottom=0;right=0;align=left;spacingLeft=6;overflow=hidden;whiteSpace=wrap;html=1;labelBackgroundColor=none;" parent="Sgz2viNoFniqBPr7EADz-41" vertex="1">
          <mxGeometry x="30" width="366" height="30" as="geometry">
            <mxRectangle width="366" height="30" as="alternateBounds" />
          </mxGeometry>
        </mxCell>
        <mxCell id="Sgz2viNoFniqBPr7EADz-44" value="" style="shape=tableRow;horizontal=0;startSize=0;swimlaneHead=0;swimlaneBody=0;fillColor=none;collapsible=0;dropTarget=0;points=[[0,0.5],[1,0.5]];portConstraint=eastwest;top=0;left=0;right=0;bottom=0;labelBackgroundColor=none;" parent="Sgz2viNoFniqBPr7EADz-28" vertex="1">
          <mxGeometry y="180" width="396" height="30" as="geometry" />
        </mxCell>
        <mxCell id="Sgz2viNoFniqBPr7EADz-45" value="" style="shape=partialRectangle;connectable=0;fillColor=none;top=0;left=0;bottom=0;right=0;editable=1;overflow=hidden;whiteSpace=wrap;html=1;labelBackgroundColor=none;" parent="Sgz2viNoFniqBPr7EADz-44" vertex="1">
          <mxGeometry width="30" height="30" as="geometry">
            <mxRectangle width="30" height="30" as="alternateBounds" />
          </mxGeometry>
        </mxCell>
        <mxCell id="Sgz2viNoFniqBPr7EADz-46" value="Data_criação&lt;span style=&quot;white-space: pre;&quot;&gt;&#x9;&lt;/span&gt;TIMESTAMP DEFAULT CURRENT_TIMESTAMP" style="shape=partialRectangle;connectable=0;fillColor=none;top=0;left=0;bottom=0;right=0;align=left;spacingLeft=6;overflow=hidden;whiteSpace=wrap;html=1;labelBackgroundColor=none;" parent="Sgz2viNoFniqBPr7EADz-44" vertex="1">
          <mxGeometry x="30" width="366" height="30" as="geometry">
            <mxRectangle width="366" height="30" as="alternateBounds" />
          </mxGeometry>
        </mxCell>
        <mxCell id="Sgz2viNoFniqBPr7EADz-47" value="" style="shape=tableRow;horizontal=0;startSize=0;swimlaneHead=0;swimlaneBody=0;fillColor=none;collapsible=0;dropTarget=0;points=[[0,0.5],[1,0.5]];portConstraint=eastwest;top=0;left=0;right=0;bottom=0;labelBackgroundColor=none;" parent="Sgz2viNoFniqBPr7EADz-28" vertex="1">
          <mxGeometry y="210" width="396" height="30" as="geometry" />
        </mxCell>
        <mxCell id="Sgz2viNoFniqBPr7EADz-48" value="" style="shape=partialRectangle;connectable=0;fillColor=none;top=0;left=0;bottom=0;right=0;editable=1;overflow=hidden;whiteSpace=wrap;html=1;labelBackgroundColor=none;" parent="Sgz2viNoFniqBPr7EADz-47" vertex="1">
          <mxGeometry width="30" height="30" as="geometry">
            <mxRectangle width="30" height="30" as="alternateBounds" />
          </mxGeometry>
        </mxCell>
        <mxCell id="Sgz2viNoFniqBPr7EADz-49" value="Data_edição&lt;span style=&quot;white-space: pre;&quot;&gt;&#x9;&lt;/span&gt;TIMESTAMP" style="shape=partialRectangle;connectable=0;fillColor=none;top=0;left=0;bottom=0;right=0;align=left;spacingLeft=6;overflow=hidden;whiteSpace=wrap;html=1;labelBackgroundColor=none;" parent="Sgz2viNoFniqBPr7EADz-47" vertex="1">
          <mxGeometry x="30" width="366" height="30" as="geometry">
            <mxRectangle width="366" height="30" as="alternateBounds" />
          </mxGeometry>
        </mxCell>
        <mxCell id="Sgz2viNoFniqBPr7EADz-50" value="TAG-Anotação" style="shape=table;startSize=30;container=1;collapsible=1;childLayout=tableLayout;fixedRows=1;rowLines=0;fontStyle=1;align=center;resizeLast=1;html=1;labelBackgroundColor=none;" parent="Sgz2viNoFniqBPr7EADz-1" vertex="1">
          <mxGeometry x="432" y="492" width="192" height="90" as="geometry" />
        </mxCell>
        <mxCell id="Sgz2viNoFniqBPr7EADz-54" value="" style="shape=tableRow;horizontal=0;startSize=0;swimlaneHead=0;swimlaneBody=0;fillColor=none;collapsible=0;dropTarget=0;points=[[0,0.5],[1,0.5]];portConstraint=eastwest;top=0;left=0;right=0;bottom=0;labelBackgroundColor=none;" parent="Sgz2viNoFniqBPr7EADz-50" vertex="1">
          <mxGeometry y="30" width="192" height="30" as="geometry" />
        </mxCell>
        <mxCell id="Sgz2viNoFniqBPr7EADz-55" value="FK" style="shape=partialRectangle;connectable=0;fillColor=none;top=0;left=0;bottom=0;right=0;editable=1;overflow=hidden;whiteSpace=wrap;html=1;labelBackgroundColor=none;" parent="Sgz2viNoFniqBPr7EADz-54" vertex="1">
          <mxGeometry width="36" height="30" as="geometry">
            <mxRectangle width="36" height="30" as="alternateBounds" />
          </mxGeometry>
        </mxCell>
        <mxCell id="Sgz2viNoFniqBPr7EADz-56" value="Id_tag&lt;span style=&quot;white-space: pre;&quot;&gt;&#x9;&lt;/span&gt;INT&amp;nbsp;NOT NULL" style="shape=partialRectangle;connectable=0;fillColor=none;top=0;left=0;bottom=0;right=0;align=left;spacingLeft=6;overflow=hidden;whiteSpace=wrap;html=1;labelBackgroundColor=none;" parent="Sgz2viNoFniqBPr7EADz-54" vertex="1">
          <mxGeometry x="36" width="156" height="30" as="geometry">
            <mxRectangle width="156" height="30" as="alternateBounds" />
          </mxGeometry>
        </mxCell>
        <mxCell id="Sgz2viNoFniqBPr7EADz-57" value="" style="shape=tableRow;horizontal=0;startSize=0;swimlaneHead=0;swimlaneBody=0;fillColor=none;collapsible=0;dropTarget=0;points=[[0,0.5],[1,0.5]];portConstraint=eastwest;top=0;left=0;right=0;bottom=0;labelBackgroundColor=none;" parent="Sgz2viNoFniqBPr7EADz-50" vertex="1">
          <mxGeometry y="60" width="192" height="30" as="geometry" />
        </mxCell>
        <mxCell id="Sgz2viNoFniqBPr7EADz-58" value="FK" style="shape=partialRectangle;connectable=0;fillColor=none;top=0;left=0;bottom=0;right=0;editable=1;overflow=hidden;whiteSpace=wrap;html=1;labelBackgroundColor=none;" parent="Sgz2viNoFniqBPr7EADz-57" vertex="1">
          <mxGeometry width="36" height="30" as="geometry">
            <mxRectangle width="36" height="30" as="alternateBounds" />
          </mxGeometry>
        </mxCell>
        <mxCell id="Sgz2viNoFniqBPr7EADz-59" value="Id_nota&lt;span style=&quot;white-space: pre;&quot;&gt;&#x9;&lt;/span&gt;INT&amp;nbsp;NOT NULL" style="shape=partialRectangle;connectable=0;fillColor=none;top=0;left=0;bottom=0;right=0;align=left;spacingLeft=6;overflow=hidden;whiteSpace=wrap;html=1;labelBackgroundColor=none;" parent="Sgz2viNoFniqBPr7EADz-57" vertex="1">
          <mxGeometry x="36" width="156" height="30" as="geometry">
            <mxRectangle width="156" height="30" as="alternateBounds" />
          </mxGeometry>
        </mxCell>
        <mxCell id="Sgz2viNoFniqBPr7EADz-60" style="edgeStyle=orthogonalEdgeStyle;rounded=0;orthogonalLoop=1;jettySize=auto;html=1;exitX=1;exitY=0.5;exitDx=0;exitDy=0;entryX=0;entryY=0.5;entryDx=0;entryDy=0;curved=1;endArrow=ERoneToMany;endFill=0;labelBackgroundColor=none;fontColor=default;" parent="Sgz2viNoFniqBPr7EADz-1" source="Sgz2viNoFniqBPr7EADz-3" target="Sgz2viNoFniqBPr7EADz-54" edge="1">
          <mxGeometry relative="1" as="geometry" />
        </mxCell>
        <mxCell id="Sgz2viNoFniqBPr7EADz-62" style="edgeStyle=orthogonalEdgeStyle;rounded=0;orthogonalLoop=1;jettySize=auto;html=1;exitX=1;exitY=0.5;exitDx=0;exitDy=0;entryX=0;entryY=0.5;entryDx=0;entryDy=0;curved=1;endArrow=ERoneToMany;endFill=0;labelBackgroundColor=none;fontColor=default;" parent="Sgz2viNoFniqBPr7EADz-1" source="Sgz2viNoFniqBPr7EADz-13" target="Sgz2viNoFniqBPr7EADz-32" edge="1">
          <mxGeometry relative="1" as="geometry" />
        </mxCell>
        <mxCell id="RtAXjhBbf0b3ArKtAH4R-1" style="edgeStyle=orthogonalEdgeStyle;rounded=0;orthogonalLoop=1;jettySize=auto;html=1;exitX=0;exitY=0.5;exitDx=0;exitDy=0;entryX=0;entryY=0.5;entryDx=0;entryDy=0;endArrow=ERoneToMany;endFill=0;curved=1;labelBackgroundColor=none;fontColor=default;" parent="Sgz2viNoFniqBPr7EADz-1" source="Sgz2viNoFniqBPr7EADz-29" target="Sgz2viNoFniqBPr7EADz-57" edge="1">
          <mxGeometry relative="1" as="geometry">
            <Array as="points">
              <mxPoint x="372" y="729" />
              <mxPoint x="372" y="567" />
            </Array>
          </mxGeometry>
        </mxCell>
        <mxCell id="RtAXjhBbf0b3ArKtAH4R-2" style="edgeStyle=orthogonalEdgeStyle;rounded=0;orthogonalLoop=1;jettySize=auto;html=1;exitX=0;exitY=0.5;exitDx=0;exitDy=0;entryX=0;entryY=0.5;entryDx=0;entryDy=0;curved=1;endArrow=ERoneToMany;endFill=0;labelBackgroundColor=none;fontColor=default;" parent="Sgz2viNoFniqBPr7EADz-1" source="Sgz2viNoFniqBPr7EADz-13" target="Sgz2viNoFniqBPr7EADz-6" edge="1">
          <mxGeometry relative="1" as="geometry">
            <Array as="points">
              <mxPoint x="-132" y="693" />
              <mxPoint x="-132" y="474" />
            </Array>
          </mxGeometry>
        </mxCell>
      </root>
    </mxGraphModel>
  </diagram>
</mxfile>
